<?xml version="1.0" encoding="UTF-8"?>
<svg id="Layer_1" data-name="Layer 1" xmlns="http://www.w3.org/2000/svg" width="839.643" height="202.961" viewBox="0 0 839.643 202.961">
  <defs>
    <style>
      .cls-1 {
        fill: #161617;
      }

      .cls-1, .cls-2 {
        stroke-width: 0px;
      }

      .cls-2 {
        fill: #f5f5f7;
      }
    </style>
  </defs>
  <g>
    <path class="cls-1" d="m248.166,114.167l16.85-.793c.793,5.452,4.361,9.515,10.902,9.515,6.046,0,8.822-2.775,8.822-5.848,0-11.795-35.087-6.938-35.087-31.32,0-11.398,9.119-20.319,25.572-20.319,14.967,0,25.175,10.407,25.87,22.598l-16.751.793c-.595-5.253-4.064-8.722-9.317-8.722-5.352,0-8.127,2.775-8.127,6.145,0,11.597,34.987,6.145,34.987,30.627,0,11.497-9.217,20.715-25.77,20.715-17.047,0-27.157-10.606-27.95-23.392Z"/>
    <path class="cls-1" d="m313.776,101.48c0-19.922,15.562-36.078,34.889-36.078,19.229,0,34.889,16.156,34.889,36.078,0,19.922-15.66,36.079-34.889,36.079-19.327,0-34.889-16.156-34.889-36.079Zm52.929,0c0-11.894-8.326-20.22-18.04-20.22-9.812,0-18.039,8.326-18.039,20.22,0,11.894,8.227,20.22,18.039,20.22,9.713,0,18.04-8.326,18.04-20.22Z"/>
    <path class="cls-1" d="m397.068,136.171v-69.381h16.85v53.226s31.42,0,31.42,0v16.155h-48.27Z"/>
    <path class="cls-1" d="m455.503,108.716v-41.926h16.85v41.926c0,7.335,4.559,12.687,12.489,12.687,7.83,0,12.489-5.352,12.489-12.687v-41.926h16.85v41.926c0,16.652-11.498,28.843-29.339,28.843-17.841,0-29.339-12.192-29.339-28.843Z"/>
    <path class="cls-1" d="m547.29,136.171v-53.225h-19.823v-16.156h56.397v16.156h-19.724s0,53.225,0,53.225h-16.85Z"/>
    <path class="cls-1" d="m597.419,136.171v-69.381h16.85v69.381s-16.85,0-16.85,0Z"/>
    <path class="cls-1" d="m627.745,101.48c0-19.922,15.562-36.078,34.889-36.078,19.229,0,34.889,16.156,34.889,36.078,0,19.922-15.66,36.079-34.889,36.079-19.327,0-34.889-16.156-34.889-36.079Zm52.929,0c0-11.894-8.326-20.22-18.04-20.22-9.812,0-18.039,8.326-18.039,20.22s8.227,20.22,18.039,20.22c9.713,0,18.04-8.326,18.04-20.22Z"/>
    <path class="cls-1" d="m754.945,66.79h16.354v69.381s-15.759,0-15.759,0l-28.149-42.223v42.223h-16.355v-69.381h15.76l28.149,42.224v-42.224Z"/>
    <path class="cls-1" d="m785.923,114.167l16.85-.793c.793,5.452,4.361,9.515,10.902,9.515,6.046,0,8.822-2.775,8.822-5.848,0-11.795-35.087-6.938-35.087-31.32,0-11.398,9.119-20.319,25.572-20.319,14.967,0,25.175,10.407,25.87,22.598l-16.751.793c-.595-5.253-4.064-8.722-9.317-8.722-5.352,0-8.127,2.775-8.127,6.145,0,11.597,34.987,6.145,34.987,30.627,0,11.497-9.217,20.715-25.77,20.715-17.047,0-27.157-10.606-27.95-23.392Z"/>
  </g>
  <g>
    <circle class="cls-1" cx="101.481" cy="101.481" r="101.481"/>
    <g>
      <path class="cls-2" d="m46.515,105.527l28.647,52.526h61.062l-1.695-2.812c-18.597-30.852-51.99-49.714-88.014-49.714h0Z"/>
      <path class="cls-2" d="m46.515,97.434l28.647-52.526h61.062l-1.695,2.812c-18.597,30.852-51.99,49.714-88.014,49.714h0Z"/>
    </g>
  </g>
</svg>