<?xml version="1.0" encoding="UTF-8"?>
<svg id="Layer_1" data-name="Layer 1" xmlns="http://www.w3.org/2000/svg" viewBox="0 0 1046.686 400">
  <defs>
    <style>
      .cls-1 {
        fill: #171717;
      }

      .cls-1, .cls-2 {
        stroke-width: 0px;
      }

      .cls-2 {
        fill: #f5f5f7;
      }
    </style>
  </defs>
  <path class="cls-2" d="M400,200C400,89.544,310.456,0,200,0S0,89.544,0,200s89.544,200,200,200,200-89.544,200-200"/>
  <g>
    <path class="cls-1" d="M218.09,113.284c-30.332,0-58.241,16.571-72.765,43.2l-.088.159h154.397l23.647-43.359h-105.191Z"/>
    <path class="cls-1" d="M76.718,286.716h105.191c30.332,0,58.241-16.568,72.765-43.2l.088-.159H100.366l-23.647,43.359Z"/>
  </g>
  <g>
    <path class="cls-2" d="M528.681,169.905c0-6.612,5.444-12.059,15.947-12.059,10.309,0,17.115,6.806,18.282,17.115l32.871-1.556c-1.362-23.924-21.394-44.344-50.765-44.344-32.285,0-50.18,17.503-50.18,39.871,0,47.847,68.85,38.318,68.85,61.462,0,6.029-5.444,11.474-17.309,11.474-12.835,0-19.838-7.974-21.397-18.67l-33.062,1.556c1.556,25.091,21.394,45.903,54.847,45.903,32.482,0,50.571-18.088,50.571-40.65,0-48.041-68.656-37.344-68.656-60.1Z"/>
    <path class="cls-2" d="M670.662,166.014c-14.588,0-24.897,7.779-28.785,12.447h-.974l-4.474-9.724h-22.756v134.203h30.729v-42.985h.974c2.335,3.503,11.474,10.7,25.285,10.7,23.923,0,45.512-21.979,45.512-52.321s-21.588-52.321-45.512-52.321ZM665.021,242.841c-11.085,0-20.618-10.115-20.618-24.506s9.532-24.506,20.618-24.506,20.423,10.112,20.423,24.506-9.335,24.506-20.423,24.506Z"/>
    <path class="cls-2" d="M775.884,166.016c-29.368,0-41.232,19.253-42.594,33.065l29.953,1.556c.776-4.279,4.862-9.144,12.253-9.144,7.976,0,13.226,5.253,13.226,15.174v.971h-11.477c-30.729,0-48.818,12.838-48.818,32.871,0,16.726,14.391,30.147,33.453,30.147,15.365,0,23.924-7.585,28.591-12.447h.971l4.476,9.724h22.756v-59.127c0-25.285-15.756-42.788-42.791-42.788ZM788.722,229.81c0,9.335-7.197,17.115-18.088,17.115-7.974,0-12.253-4.276-12.253-9.723,0-6.615,4.862-11.476,18.088-11.476h12.253v4.085Z"/>
    <path class="cls-2" d="M883.889,193.829c11.088,0,17.312,9.335,18.674,14.003l30.341-1.556c-3.115-16.727-19.059-40.262-49.015-40.262-28.588,0-51.929,23.924-51.929,52.321s23.341,52.321,51.929,52.321c29.956,0,45.9-23.535,49.015-40.262l-30.341-1.556c-1.362,4.668-7.585,14.003-18.674,14.003-12.059,0-21.2-10.309-21.2-24.506s9.141-24.506,21.2-24.506Z"/>
    <path class="cls-2" d="M1046.686,216.585c0-28.009-21.394-50.57-50.182-50.57-28.394,0-51.735,23.923-51.735,52.321,0,28.785,22.95,52.321,51.932,52.321,25.282,0,41.621-17.506,47.068-31.509l-30.732-1.362c-1.944,2.138-7,7-16.727,7-10.503,0-18.671-6.029-21.588-16.921h70.797c.582-1.944,1.168-5.835,1.168-11.279ZM974.527,208.805c2.918-10.894,11.279-17.312,21.588-17.312,10.894,0,19.062,7.197,21.397,17.312h-42.985Z"/>
  </g>
</svg>