<?xml version="1.0" encoding="UTF-8"?>
<svg id="Layer_1" data-name="Layer 1" xmlns="http://www.w3.org/2000/svg" viewBox="0 0 913.958 400">
  <defs>
    <style>
      .cls-1 {
        fill: #171717;
      }

      .cls-1, .cls-2 {
        stroke-width: 0px;
      }

      .cls-2 {
        fill: #f5f5f7;
      }
    </style>
  </defs>
  <g>
    <polygon class="cls-1" points="497.058 268.235 530.876 268.235 530.876 219.694 585.385 219.694 585.385 189.458 530.876 189.458 530.876 160.611 594.535 160.611 594.535 128.982 497.058 128.982 497.058 268.235"/>
    <rect class="cls-1" x="605.993" y="128.982" width="31.432" height="139.253"/>
    <path class="cls-1" d="M705.694,163.994c-29.441,0-53.312,24.468-53.312,53.512s23.871,53.512,53.312,53.512c29.244,0,53.315-24.468,53.315-53.512s-24.071-53.512-53.315-53.512ZM705.694,242.571c-12.532,0-21.882-10.544-21.882-25.065s9.35-25.065,21.882-25.065c12.335,0,21.882,10.544,21.882,25.065s-9.547,25.065-21.882,25.065Z"/>
    <polygon class="cls-1" points="882.525 166.778 865.814 227.055 846.719 166.778 827.025 166.778 808.125 226.458 791.417 166.778 758.79 166.778 792.408 268.234 819.267 268.234 836.572 214.919 853.681 268.234 880.537 268.234 913.958 166.778 882.525 166.778"/>
  </g>
  <path class="cls-1" d="M400,200C400,89.544,310.456,0,200,0S0,89.544,0,200s89.541,200,200,200,200-89.544,200-200"/>
  <g>
    <path class="cls-2" d="M334.168,116.148h-134.656c-26.074,0-50.065,14.244-62.547,37.135l-40.659,74.565c-.026.047.009.103.062.103h1.785c26.097,0,50.109-14.256,62.603-37.168l10.235-18.768c6.253-11.465,18.271-18.6,31.332-18.6h69.3c26.097,0,50.109-14.256,62.603-37.165.026-.047-.009-.103-.059-.103Z"/>
    <path class="cls-2" d="M172.842,209.19l-10.262,18.824c-6.241,11.447-18.238,18.57-31.274,18.57h-2.926c-26.071,0-50.062,14.241-62.544,37.129l-.073.138h68.312c26.074,0,50.065-14.247,62.547-37.138l10.265-18.829c6.241-11.444,18.238-18.568,31.276-18.568h2.9c26.071,0,50.062-14.241,62.544-37.132l.073-.135h-68.288c-26.074,0-50.068,14.247-62.55,37.141Z"/>
  </g>
</svg>